<svg xmlns="http://www.w3.org/2000/svg" width="562" height="238" viewBox="0 0 562 238" role="img" aria-label="Bambu Studio AI">
  <defs><linearGradient id="b" x1="0" y1="0" x2="562" y2="238" gradientUnits="userSpaceOnUse"><stop stop-color="#102A35"/><stop offset="1" stop-color="#071118"/></linearGradient><linearGradient id="g" x1="38" y1="45" x2="198" y2="190" gradientUnits="userSpaceOnUse"><stop stop-color="#55F0C2"/><stop offset=".55" stop-color="#20BFA2"/><stop offset="1" stop-color="#7C6CFF"/></linearGradient></defs>
  <rect width="562" height="238" rx="22" fill="url(#b)"/>
  <g opacity=".1" stroke="#55F0C2"><path d="M0 38h562M0 78h562M0 118h562M0 158h562M0 198h562"/><path d="M40 0v238M80 0v238M120 0v238M160 0v238M200 0v238M240 0v238M280 0v238M320 0v238M360 0v238M400 0v238M440 0v238M480 0v238M520 0v238"/></g>
  <path d="M55 74h96c24 0 35 12 35 29s-11 29-35 29H78c-23 0-35 12-35 29s12 29 35 29h116" fill="none" stroke="url(#g)" stroke-width="20" stroke-linecap="round"/>
  <path d="M57 117h70M106 176h85" stroke="#E8FFF8" stroke-width="11" stroke-linecap="round"/>
  <path d="M43 37h47L80 57H54z" fill="#E8FFF8"/><circle cx="67" cy="66" r="8" fill="#55F0C2"/><path d="M188 28v31M173 44h31" stroke="#AFA5FF" stroke-width="8" stroke-linecap="round"/>
  <text x="234" y="104" fill="#F5FFFC" font-family="Segoe UI,Arial,sans-serif" font-size="38" font-weight="700">Bambu Studio AI</text>
  <text x="235" y="143" fill="#9AC5C1" font-family="Segoe UI,Arial,sans-serif" font-size="17">Design · Slice · Automate</text>
</svg>
